<svg width="322" height="84" viewBox="0 0 322 84" fill="none" xmlns="http://www.w3.org/2000/svg">
<path d="M222.19 14.4801C220.774 13.6144 219.036 14.5697 217.337 15.915L215.371 15.1443L215.329 15.2908L207.369 12.3233C207.361 12.2936 207.352 12.2607 207.34 12.221C207.328 12.1498 207.313 12.0811 207.299 12.0172C207.267 11.8872 206.573 9.72474 206.242 8.69384C206.128 8.34285 205.917 8.03358 205.633 7.80286L203.163 5.79752C203.27 5.96688 203.377 6.13624 203.457 6.26633C203.741 6.70569 203.365 7.27268 202.901 7.41995L202.923 8.13422C203.044 8.8637 203.022 9.37325 202.765 9.64889C202.741 9.67442 202.707 9.70461 202.667 9.73676C202.45 9.91447 202.192 10.0377 201.921 10.1062L201.918 10.1069C201.728 10.1548 201.529 10.1462 201.346 10.0779L200.122 9.62165C200.213 9.64153 200.412 9.68252 200.666 9.72228C201.047 9.78193 201.437 9.79543 201.821 9.75812C201.961 9.74437 202.102 9.72449 202.226 9.68326C202.42 9.6219 202.573 9.50653 202.622 9.28317C202.646 9.07454 202.644 8.86836 202.583 8.65972C202.462 8.19582 202.449 7.69019 202.423 7.22629C202.406 7.08147 202.539 6.95384 202.683 6.97839C202.77 7.00539 202.959 6.82866 203.042 6.71084C203.081 6.66175 203.091 6.60285 203.069 6.54394L202.804 6.08249L202.527 5.58422C202.471 5.49586 202.488 5.37804 202.568 5.31423C202.576 5.30441 202.588 5.2995 202.598 5.29214C203.001 5.17432 203.406 5.04669 203.758 4.8086C204.098 4.59015 204.387 4.28579 204.603 3.9127C204.603 3.9127 205.021 2.92844 205.337 2.81554C205.482 2.76154 205.519 2.56027 205.4 2.45963C205.135 2.23627 204.375 2.07673 202.292 2.48663C200.895 0.66784 199.278 -0.250147 197.36 0.0591217C196.005 0.277573 194.774 1.01638 193.931 2.11109C193.36 2.85235 192.848 3.89307 192.906 5.20377C192.321 5.20377 191.799 5.24305 191.799 5.24305C191.77 4.89696 191.228 4.86751 191.228 4.86751C191.25 4.76442 191.192 4.65151 191.107 4.55088C190.937 4.34224 190.655 4.26615 190.4 4.35206L190.233 4.40851C190.046 4.27106 189.791 4.26861 189.601 4.4036L189.434 4.52388C188.895 4.37906 188.268 4.52388 188.268 4.52388L188.067 4.17779H186.474L186.158 4.36433C185.835 4.55578 185.614 4.88469 185.556 5.25777L185.335 6.71084L185.954 7.5012C182.496 13.878 182.916 16.902 182.916 16.902C183.336 19.1699 190.769 19.3123 190.769 19.3123C193.739 21.5901 195.912 24.5551 197.581 27.9571C198.185 29.1843 198.363 30.581 198.108 31.9285C195.368 37.7751 194.82 41.9478 196.893 44.12C196.146 47.5686 194.043 54.8929 194.043 54.8929C190.254 56.3582 183.851 67.5557 183.851 67.5557C182.637 66.2327 181.233 67.1311 181.233 67.1311C180.813 66.6574 180.017 66.7997 180.017 66.7997C178.849 68.0761 179.317 71.6179 179.317 71.6179L179.39 71.7701C179.626 72.2463 179.541 72.8206 179.176 73.2035L179.111 73.2698C178.727 73.6748 178.497 74.205 178.467 74.7646C178.402 76.0827 178.475 78.2328 178.475 78.2328C178.475 79.6933 179.618 79.7325 180.179 79.6613C180.388 79.6343 180.58 79.5288 180.711 79.3619C181.44 78.4341 181.046 77.2412 181.046 77.2412C181.799 76.9614 184.507 74.0675 184.507 74.0675C184.8 73.9301 185.092 73.6871 185.276 73.5152C185.437 73.368 185.371 73.0955 185.162 73.044C184.983 72.9998 184.8 73.0489 184.769 73.0587C185.148 72.8133 186.928 70.7588 186.928 70.7588C187.073 70.8595 187.338 70.8816 187.561 70.8766C187.792 70.8717 188.006 70.7564 188.144 70.5723C189.286 69.0628 194.992 62.2 196.35 60.5702C196.541 60.3394 196.76 60.1308 197 59.9492L198.469 58.8348C199.154 58.3169 199.756 57.6935 200.245 56.9841C200.947 55.9697 201.615 54.9557 202.25 53.9418C202.341 61.7034 204.217 70.4692 204.534 71.8992C204.563 72.0317 204.621 72.1557 204.703 72.2632L205.168 72.8712C205.355 73.1159 205.409 73.4387 205.312 73.732L205.226 73.9944C205.178 74.138 205.166 74.2911 205.191 74.4404L205.467 76.1136C204.928 77.7095 205.297 78.8175 205.529 79.2895C205.606 79.4461 205.735 79.5703 205.898 79.6284C207.512 80.2023 208.798 80.003 209.57 79.7502C210.037 79.5978 210.357 79.1702 210.377 78.6754C210.411 77.8531 210.533 76.9584 210.533 76.9584C211.157 75.6671 210.906 75.1274 210.602 74.9021C210.337 74.7054 210.229 74.3569 210.28 74.029L210.332 73.6991C210.361 73.5182 210.336 73.3326 210.261 73.166L209.985 72.5587C209.869 72.3032 209.874 72.0084 209.999 71.7571L210.152 71.4476C210.262 71.2245 210.279 70.9658 210.198 70.7301L209.802 69.5679L208.496 58.0064L208.914 55.2085L208.183 52.7273C208.444 50.2988 208.549 38.1566 208.549 38.1566L208.548 38.158C208.672 37.0135 209.113 34.6343 209.113 34.6343C209.407 34.3221 209.706 33.8425 209.93 33.4495C210.149 33.0639 210.189 32.6003 210.043 32.1806C209.937 31.8796 209.832 31.5505 209.759 31.3134C209.693 31.1072 209.662 30.8937 209.659 30.6752C209.64 29.0773 208.962 26.8879 208.343 24.2984C207.729 21.7236 207.178 18.6285 207.178 18.6285C206.949 17.6786 207.119 15.634 207.119 15.634C207.44 14.5373 207.493 13.6159 207.43 12.8815L215.182 15.8129L215.13 15.9975L216.996 16.6872C216.996 16.6872 218.983 20.6426 221.642 19.7571C221.741 19.7242 221.831 19.6682 221.919 19.6125C222.456 19.2745 224.048 18.0433 223.192 15.7552C222.998 15.2322 222.662 14.769 222.19 14.4801ZM194.291 12.0933C193.616 12.2848 192.916 12.3412 192.217 12.302C190.279 12.1891 187.47 13.9637 187.47 13.9637C187.186 11.4895 188.667 8.43857 188.667 8.43857C189.169 7.76113 188.827 7.49113 188.706 7.42241C189.24 7.69731 189.349 7.31441 189.349 7.31441C189.777 7.54513 190.005 7.11314 190.005 7.11314L191 7.31441C190.546 7.34386 190.631 7.83231 190.631 7.83231C190.687 8.49503 191.969 8.2643 191.969 8.2643C192.311 8.18821 192.444 7.95307 192.487 7.71498L193.987 8.24123C194.114 8.43809 194.249 8.63739 194.402 8.84087L195.077 9.38086L195.289 11.8108L194.291 12.0933Z" fill="#2A9D8F"/>
<path d="M15.04 69.088C12.5653 69.088 10.048 68.6827 7.488 67.872C4.928 67.0613 2.432 65.76 0 63.968L3.648 57.248C5.48267 58.4 7.44533 59.2747 9.536 59.872C11.6267 60.4267 13.5253 60.704 15.232 60.704C16.9813 60.704 18.432 60.1707 19.584 59.104C20.7787 58.0373 21.376 56.608 21.376 54.816C21.376 53.4933 20.992 52.4053 20.224 51.552C19.4987 50.656 18.5173 49.888 17.28 49.248C16.0427 48.608 14.6773 47.9893 13.184 47.392C11.7333 46.7947 10.2613 46.1333 8.768 45.408C7.27467 44.64 5.90933 43.7227 4.672 42.656C3.43467 41.5467 2.432 40.1813 1.664 38.56C0.938667 36.896 0.576 34.848 0.576 32.416C0.576 29.1733 1.344 26.4853 2.88 24.352C4.45867 22.176 6.464 20.5333 8.896 19.424C11.328 18.3147 13.8453 17.76 16.448 17.76C18.496 17.76 20.48 18.08 22.4 18.72C24.32 19.36 26.0267 20.32 27.52 21.6C29.0133 22.88 30.1227 24.5227 30.848 26.528L23.808 30.368C22.9547 28.832 21.824 27.7013 20.416 26.976C19.008 26.208 17.5787 25.824 16.128 25.824C15.104 25.824 14.144 26.0587 13.248 26.528C12.352 26.9547 11.6053 27.616 11.008 28.512C10.4533 29.3653 10.176 30.4533 10.176 31.776C10.176 33.056 10.56 34.144 11.328 35.04C12.096 35.8933 13.0987 36.64 14.336 37.28C15.5733 37.92 16.9387 38.5387 18.432 39.136C19.9253 39.7333 21.4187 40.416 22.912 41.184C24.4053 41.9093 25.7707 42.8053 27.008 43.872C28.2453 44.9387 29.248 46.2613 30.016 47.84C30.784 49.4187 31.168 51.36 31.168 53.664C31.168 56.9493 30.4427 59.744 28.992 62.048C27.5413 64.352 25.5787 66.1013 23.104 67.296C20.672 68.4907 17.984 69.088 15.04 69.088Z" fill="#60635F"/>
<path d="M44.7085 68L33.5725 31.584H43.1725L50.6605 60.192H47.4605L55.7805 33.184L64.3565 32.8L71.8445 60.192H68.6445L76.9005 31.584H85.3485L73.5725 68H65.8925L59.1085 43.808H59.9405L52.3885 68H44.7085Z" fill="#60635F"/>
<path d="M89.85 68V31.584H99.322V68H89.85ZM94.586 27.36C93.05 27.36 91.6847 26.8267 90.49 25.76C89.338 24.6933 88.762 23.0933 88.762 20.96C88.762 18.8693 89.3593 17.312 90.554 16.288C91.7487 15.264 93.114 14.752 94.65 14.752C96.186 14.752 97.5513 15.264 98.746 16.288C99.9407 17.312 100.538 18.8693 100.538 20.96C100.538 23.0507 99.9193 24.6507 98.682 25.76C97.4873 26.8267 96.122 27.36 94.586 27.36Z" fill="#60635F"/>
<path d="M127.949 68V44.256C127.949 42.3787 127.565 40.864 126.797 39.712C126.072 38.56 125.026 37.984 123.661 37.984C122.552 37.984 121.485 38.368 120.461 39.136C119.48 39.904 118.669 41.12 118.029 42.784C117.389 44.448 117.069 46.6667 117.069 49.44V68H107.597V31.584H116.685L117.069 42.528H114.125C115.106 38.5173 116.749 35.5093 119.053 33.504C121.4 31.4987 123.981 30.496 126.797 30.496C128.76 30.496 130.53 30.9867 132.109 31.968C133.73 32.9067 135.01 34.3147 135.949 36.192C136.93 38.0693 137.421 40.4373 137.421 43.296V68H127.949Z" fill="#60635F"/>
<path d="M164.094 44.704C164.094 43.2533 163.86 42.0587 163.391 41.12C162.964 40.1813 162.345 39.4773 161.535 39.008C160.766 38.496 159.87 38.24 158.846 38.24C157.865 38.24 156.991 38.4747 156.223 38.944C155.455 39.4133 154.836 40.1387 154.367 41.12C153.94 42.0587 153.727 43.2747 153.727 44.768C153.727 46.176 153.94 47.3707 154.367 48.352C154.836 49.2907 155.455 49.9947 156.223 50.464C157.033 50.9333 157.951 51.168 158.975 51.168C159.956 51.168 160.83 50.9333 161.598 50.464C162.366 49.9947 162.964 49.2907 163.391 48.352C163.86 47.3707 164.094 46.1547 164.094 44.704ZM173.566 44.768C173.566 47.4987 172.948 49.9093 171.71 52C170.473 54.048 168.745 55.648 166.527 56.8C164.351 57.9093 161.833 58.464 158.975 58.464C156.116 58.464 153.577 57.888 151.359 56.736C149.14 55.584 147.391 53.984 146.111 51.936C144.873 49.888 144.255 47.5413 144.255 44.896C144.255 42.08 144.852 39.6267 146.046 37.536C147.284 35.4453 149.012 33.824 151.23 32.672C153.449 31.52 156.031 30.944 158.975 30.944C161.705 30.944 164.159 31.5627 166.335 32.8C168.553 34.0373 170.303 35.7013 171.583 37.792C172.905 39.84 173.566 42.1653 173.566 44.768ZM177.407 31.008V38.24L165.822 37.728L158.975 31.712L177.407 31.008ZM152.574 65.376L155.967 68.192C154.516 68.8747 153.428 69.6213 152.702 70.432C152.02 71.2427 151.678 72.0107 151.678 72.736C151.678 73.8453 152.297 74.72 153.535 75.36C154.772 76 156.564 76.32 158.911 76.32C161.385 76.32 163.433 75.936 165.055 75.168C166.676 74.4 167.486 73.3973 167.486 72.16C167.486 71.1787 166.996 70.4747 166.014 70.048C165.033 69.664 163.689 69.4933 161.982 69.536L154.687 69.664C152.511 69.7067 150.676 69.344 149.182 68.576C147.689 67.8507 146.537 66.8693 145.727 65.632C144.959 64.3947 144.574 63.072 144.574 61.664C144.574 59.8293 145.236 58.0587 146.559 56.352C147.881 54.6453 149.908 53.3867 152.639 52.576L153.727 57.376C153.172 57.76 152.745 58.1653 152.447 58.592C152.191 59.0187 152.062 59.4027 152.062 59.744C152.062 60.5973 152.425 61.1947 153.15 61.536C153.876 61.8773 154.9 62.0267 156.223 61.984L163.262 61.792C167.7 61.7067 171.049 62.6027 173.311 64.48C175.572 66.3573 176.702 68.64 176.702 71.328C176.702 73.376 175.998 75.3387 174.59 77.216C173.225 79.136 171.113 80.6933 168.255 81.888C165.439 83.0827 161.876 83.68 157.566 83.68C155.006 83.68 152.617 83.36 150.398 82.72C148.18 82.08 146.388 81.12 145.023 79.84C143.657 78.6027 142.975 77.0667 142.975 75.232C142.975 73.5253 143.764 71.776 145.342 69.984C146.921 68.192 149.332 66.656 152.574 65.376Z" fill="#60635F"/>
<path d="M245.904 25.848V33.848H234L235.472 32.376V75H225.872V32.376L227.28 33.848H215.824V25.848H245.904Z" fill="#60635F"/>
<path d="M249.538 75V38.2H258.434L259.009 49.528H257.09C257.986 45.7307 259.308 42.7867 261.057 40.696C262.849 38.5627 265.367 37.496 268.609 37.496C268.908 37.496 269.185 37.496 269.441 37.496C269.74 37.496 270.039 37.5173 270.337 37.56L269.314 47.096C268.119 46.584 266.967 46.328 265.858 46.328C264.535 46.328 263.34 46.7333 262.273 47.544C261.249 48.312 260.439 49.464 259.841 51C259.287 52.4933 259.009 54.328 259.009 56.504V75H249.538Z" fill="#60635F"/>
<path d="M274.35 75V38.584H283.822V75H274.35ZM279.086 34.36C277.55 34.36 276.185 33.8267 274.99 32.76C273.838 31.6933 273.262 30.0933 273.262 27.96C273.262 25.8693 273.859 24.312 275.054 23.288C276.249 22.264 277.614 21.752 279.15 21.752C280.686 21.752 282.051 22.264 283.246 23.288C284.441 24.312 285.038 25.8693 285.038 27.96C285.038 30.0507 284.419 31.6507 283.182 32.76C281.987 33.8267 280.622 34.36 279.086 34.36Z" fill="#60635F"/>
<path d="M321.857 75.64C321.217 75.8107 320.556 75.9173 319.873 75.96C319.19 76.0453 318.55 76.088 317.953 76.088C315.99 76.088 314.305 75.6187 312.897 74.68C311.532 73.7413 310.23 72.2053 308.993 70.072L302.465 59.192L289.537 38.584H299.905L308.481 53.048L317.569 67.192C317.953 67.832 318.401 68.3013 318.913 68.6C319.425 68.856 320.022 68.984 320.705 68.984C320.79 68.984 320.897 68.984 321.025 68.984C321.196 68.9413 321.345 68.8987 321.473 68.856L321.857 75.64ZM288.193 75L302.017 54.072L303.681 52.216L312.129 38.584H321.473L308.225 58.104L306.945 60.28L297.793 75H288.193Z" fill="#60635F"/>
</svg>
