<svg width="325" height="91" viewBox="0 0 325 91" fill="none" xmlns="http://www.w3.org/2000/svg">
<path d="M224.75 14.4801C223.334 13.6144 221.596 14.5697 219.897 15.915L217.931 15.1443L217.889 15.2908L209.929 12.3233C209.921 12.2936 209.912 12.2607 209.9 12.221C209.888 12.1498 209.873 12.0811 209.859 12.0172C209.827 11.8872 209.133 9.72474 208.802 8.69384C208.688 8.34285 208.477 8.03358 208.193 7.80285L205.723 5.79752C205.83 5.96688 205.937 6.13624 206.017 6.26633C206.301 6.70569 205.925 7.27268 205.461 7.41995L205.483 8.13422C205.604 8.8637 205.582 9.37325 205.325 9.64889C205.301 9.67442 205.267 9.70461 205.227 9.73676C205.01 9.91447 204.752 10.0377 204.481 10.1062C204.48 10.1064 204.479 10.1067 204.478 10.1069C204.288 10.1548 204.089 10.1462 203.906 10.0779L202.682 9.62165C202.773 9.64153 202.972 9.68252 203.226 9.72228C203.607 9.78193 203.997 9.79543 204.381 9.75812C204.521 9.74437 204.662 9.72449 204.786 9.68326C204.98 9.6219 205.133 9.50653 205.182 9.28317C205.206 9.07454 205.204 8.86836 205.143 8.65972C205.022 8.19582 205.009 7.69019 204.983 7.22629C204.966 7.08147 205.099 6.95384 205.243 6.97839C205.33 7.00539 205.519 6.82866 205.602 6.71084C205.641 6.66175 205.651 6.60285 205.629 6.54394L205.364 6.08249L205.087 5.58422C205.031 5.49586 205.048 5.37804 205.128 5.31423C205.136 5.30441 205.148 5.2995 205.158 5.29214C205.561 5.17432 205.966 5.04669 206.318 4.8086C206.658 4.59015 206.947 4.28579 207.163 3.9127C207.163 3.9127 207.581 2.92844 207.897 2.81554C208.042 2.76154 208.079 2.56027 207.96 2.45963C207.695 2.23627 206.935 2.07673 204.852 2.48663C203.455 0.66784 201.838 -0.250147 199.92 0.0591217C198.565 0.277573 197.334 1.01638 196.491 2.11109C195.92 2.85235 195.408 3.89307 195.466 5.20377C194.881 5.20377 194.359 5.24305 194.359 5.24305C194.33 4.89696 193.788 4.86751 193.788 4.86751C193.81 4.76442 193.752 4.65151 193.667 4.55088C193.497 4.34224 193.215 4.26615 192.96 4.35206L192.793 4.40851C192.606 4.27106 192.351 4.26861 192.161 4.4036L191.994 4.52388C191.455 4.37906 190.828 4.52388 190.828 4.52388L190.627 4.17779H189.034L188.718 4.36433C188.395 4.55578 188.174 4.88469 188.116 5.25777L187.895 6.71084L188.514 7.5012C185.056 13.878 185.476 16.902 185.476 16.902C185.896 19.1699 193.329 19.3123 193.329 19.3123C196.299 21.5901 198.472 24.5551 200.141 27.9571C200.745 29.1843 200.923 30.581 200.668 31.9285C197.928 37.7751 197.38 41.9478 199.453 44.12C198.706 47.5686 196.603 54.8929 196.603 54.8929C192.814 56.3582 186.411 67.5557 186.411 67.5557C185.197 66.2327 183.793 67.1311 183.793 67.1311C183.373 66.6574 182.577 66.7997 182.577 66.7997C181.409 68.0761 181.877 71.6179 181.877 71.6179L181.95 71.7701C182.186 72.2463 182.101 72.8206 181.736 73.2035L181.671 73.2698C181.287 73.6748 181.057 74.205 181.027 74.7646C180.962 76.0827 181.035 78.2328 181.035 78.2328C181.035 79.6932 182.178 79.7325 182.739 79.6613C182.948 79.6343 183.14 79.5288 183.271 79.3619C184 78.4341 183.606 77.2412 183.606 77.2412C184.359 76.9614 187.067 74.0675 187.067 74.0675C187.36 73.9301 187.652 73.6871 187.836 73.5152C187.997 73.368 187.931 73.0955 187.722 73.044C187.543 72.9998 187.36 73.0489 187.329 73.0587C187.708 72.8133 189.488 70.7588 189.488 70.7588C189.633 70.8595 189.898 70.8816 190.121 70.8766C190.352 70.8717 190.566 70.7564 190.704 70.5723C191.846 69.0628 197.552 62.2 198.909 60.5702C199.101 60.3394 199.32 60.1308 199.56 59.9492L201.029 58.8348C201.714 58.3169 202.316 57.6935 202.805 56.9841C203.507 55.9697 204.175 54.9557 204.81 53.9418C204.901 61.7034 206.777 70.4692 207.094 71.8992C207.123 72.0317 207.181 72.1557 207.263 72.2632L207.728 72.8712C207.915 73.1159 207.969 73.4387 207.872 73.732L207.786 73.9944C207.738 74.138 207.726 74.2911 207.751 74.4404L208.027 76.1136C207.488 77.7095 207.857 78.8175 208.089 79.2895C208.166 79.4461 208.295 79.5703 208.458 79.6285C210.072 80.2023 211.358 80.003 212.13 79.7502C212.597 79.5978 212.917 79.1702 212.937 78.6754C212.971 77.8531 213.093 76.9584 213.093 76.9584C213.717 75.6671 213.466 75.1274 213.162 74.9021C212.897 74.7054 212.789 74.3569 212.84 74.029L212.892 73.6991C212.921 73.5182 212.896 73.3326 212.821 73.166L212.545 72.5587C212.429 72.3032 212.434 72.0084 212.559 71.7571L212.712 71.4476C212.822 71.2245 212.839 70.9658 212.758 70.7301L212.362 69.5679L211.056 58.0064L211.474 55.2085L210.743 52.7273C211.004 50.2988 211.109 38.1566 211.109 38.1566L211.108 38.158C211.232 37.0135 211.673 34.6343 211.673 34.6343C211.967 34.3221 212.266 33.8425 212.49 33.4495C212.709 33.0639 212.749 32.6003 212.603 32.1806C212.497 31.8796 212.392 31.5505 212.319 31.3134C212.253 31.1072 212.222 30.8937 212.219 30.6752C212.2 29.0773 211.522 26.8879 210.903 24.2984C210.289 21.7236 209.738 18.6285 209.738 18.6285C209.509 17.6786 209.679 15.634 209.679 15.634C210 14.5373 210.053 13.6159 209.99 12.8815L217.742 15.8129L217.69 15.9975L219.556 16.6872C219.556 16.6872 221.543 20.6426 224.202 19.7571C224.301 19.7242 224.391 19.6682 224.479 19.6125C225.016 19.2745 226.608 18.0433 225.752 15.7552C225.558 15.2322 225.222 14.769 224.75 14.4801ZM196.851 12.0933C196.176 12.2848 195.476 12.3412 194.777 12.302C192.839 12.1891 190.03 13.9637 190.03 13.9637C189.746 11.4895 191.227 8.43857 191.227 8.43857C191.729 7.76113 191.387 7.49113 191.266 7.42241C191.8 7.69731 191.909 7.31441 191.909 7.31441C192.337 7.54513 192.565 7.11314 192.565 7.11314L193.56 7.31441C193.106 7.34386 193.191 7.83231 193.191 7.83231C193.247 8.49503 194.529 8.2643 194.529 8.2643C194.871 8.18821 195.004 7.95307 195.047 7.71498L196.547 8.24123C196.674 8.43809 196.809 8.63739 196.962 8.84087L197.637 9.38086L197.849 11.8108L196.851 12.0933Z" fill="#2A9D8F"/>
<path d="M17.6 69.088C15.1253 69.088 12.608 68.6827 10.048 67.872C7.488 67.0613 4.992 65.76 2.56 63.968L6.208 57.248C8.04267 58.4 10.0053 59.2747 12.096 59.872C14.1867 60.4267 16.0853 60.704 17.792 60.704C19.5413 60.704 20.992 60.1707 22.144 59.104C23.3387 58.0373 23.936 56.608 23.936 54.816C23.936 53.4933 23.552 52.4053 22.784 51.552C22.0587 50.656 21.0773 49.888 19.84 49.248C18.6027 48.608 17.2373 47.9893 15.744 47.392C14.2933 46.7947 12.8213 46.1333 11.328 45.408C9.83467 44.64 8.46933 43.7227 7.232 42.656C5.99467 41.5467 4.992 40.1813 4.224 38.56C3.49867 36.896 3.136 34.848 3.136 32.416C3.136 29.1733 3.904 26.4853 5.44 24.352C7.01867 22.176 9.024 20.5333 11.456 19.424C13.888 18.3147 16.4053 17.76 19.008 17.76C21.056 17.76 23.04 18.08 24.96 18.72C26.88 19.36 28.5867 20.32 30.08 21.6C31.5733 22.88 32.6827 24.5227 33.408 26.528L26.368 30.368C25.5147 28.832 24.384 27.7013 22.976 26.976C21.568 26.208 20.1387 25.824 18.688 25.824C17.664 25.824 16.704 26.0587 15.808 26.528C14.912 26.9547 14.1653 27.616 13.568 28.512C13.0133 29.3653 12.736 30.4533 12.736 31.776C12.736 33.056 13.12 34.144 13.888 35.04C14.656 35.8933 15.6587 36.64 16.896 37.28C18.1333 37.92 19.4987 38.5387 20.992 39.136C22.4853 39.7333 23.9787 40.416 25.472 41.184C26.9653 41.9093 28.3307 42.8053 29.568 43.872C30.8053 44.9387 31.808 46.2613 32.576 47.84C33.344 49.4187 33.728 51.36 33.728 53.664C33.728 56.9493 33.0027 59.744 31.552 62.048C30.1013 64.352 28.1387 66.1013 25.664 67.296C23.232 68.4907 20.544 69.088 17.6 69.088ZM47.2685 68L36.1325 31.584H45.7325L53.2205 60.192H50.0205L58.3405 33.184L66.9165 32.8L74.4045 60.192H71.2045L79.4605 31.584H87.9085L76.1325 68H68.4525L61.6685 43.808H62.5005L54.9485 68H47.2685ZM92.41 68V31.584H101.882V68H92.41ZM97.146 27.36C95.61 27.36 94.2447 26.8267 93.05 25.76C91.898 24.6933 91.322 23.0933 91.322 20.96C91.322 18.8693 91.9193 17.312 93.114 16.288C94.3087 15.264 95.674 14.752 97.21 14.752C98.746 14.752 100.111 15.264 101.306 16.288C102.501 17.312 103.098 18.8693 103.098 20.96C103.098 23.0507 102.479 24.6507 101.242 25.76C100.047 26.8267 98.682 27.36 97.146 27.36ZM130.509 68V44.256C130.509 42.3787 130.125 40.864 129.357 39.712C128.632 38.56 127.586 37.984 126.221 37.984C125.112 37.984 124.045 38.368 123.021 39.136C122.04 39.904 121.229 41.12 120.589 42.784C119.949 44.448 119.629 46.6667 119.629 49.44V68H110.157V31.584H119.245L119.629 42.528H116.685C117.666 38.5173 119.309 35.5093 121.613 33.504C123.96 31.4987 126.541 30.496 129.357 30.496C131.32 30.496 133.09 30.9867 134.669 31.968C136.29 32.9067 137.57 34.3147 138.509 36.192C139.49 38.0693 139.981 40.4373 139.981 43.296V68H130.509ZM166.655 44.704C166.655 43.2533 166.42 42.0587 165.951 41.12C165.524 40.1813 164.905 39.4773 164.095 39.008C163.327 38.496 162.431 38.24 161.407 38.24C160.425 38.24 159.551 38.4747 158.783 38.944C158.015 39.4133 157.396 40.1387 156.927 41.12C156.5 42.0587 156.287 43.2747 156.287 44.768C156.287 46.176 156.5 47.3707 156.927 48.352C157.396 49.2907 158.015 49.9947 158.783 50.464C159.593 50.9333 160.511 51.168 161.535 51.168C162.516 51.168 163.391 50.9333 164.159 50.464C164.927 49.9947 165.524 49.2907 165.951 48.352C166.42 47.3707 166.655 46.1547 166.655 44.704ZM176.127 44.768C176.127 47.4987 175.508 49.9093 174.271 52C173.033 54.048 171.305 55.648 169.087 56.8C166.911 57.9093 164.393 58.464 161.535 58.464C158.676 58.464 156.137 57.888 153.919 56.736C151.7 55.584 149.951 53.984 148.671 51.936C147.433 49.888 146.815 47.5413 146.815 44.896C146.815 42.08 147.412 39.6267 148.607 37.536C149.844 35.4453 151.572 33.824 153.791 32.672C156.009 31.52 158.591 30.944 161.535 30.944C164.265 30.944 166.719 31.5627 168.895 32.8C171.113 34.0373 172.863 35.7013 174.143 37.792C175.465 39.84 176.127 42.1653 176.127 44.768ZM179.967 31.008V38.24L168.383 37.728L161.535 31.712L179.967 31.008ZM155.135 65.376L158.527 68.192C157.076 68.8747 155.988 69.6213 155.263 70.432C154.58 71.2427 154.239 72.0107 154.239 72.736C154.239 73.8453 154.857 74.72 156.095 75.36C157.332 76 159.124 76.32 161.471 76.32C163.945 76.32 165.993 75.936 167.615 75.168C169.236 74.4 170.047 73.3973 170.047 72.16C170.047 71.1787 169.556 70.4747 168.575 70.048C167.593 69.664 166.249 69.4933 164.543 69.536L157.247 69.664C155.071 69.7067 153.236 69.344 151.743 68.576C150.249 67.8507 149.097 66.8693 148.286 65.632C147.519 64.3947 147.135 63.072 147.135 61.664C147.135 59.8293 147.796 58.0587 149.119 56.352C150.441 54.6453 152.468 53.3867 155.199 52.576L156.287 57.376C155.732 57.76 155.305 58.1653 155.007 58.592C154.751 59.0187 154.623 59.4027 154.623 59.744C154.623 60.5973 154.985 61.1947 155.711 61.536C156.436 61.8773 157.46 62.0267 158.783 61.984L165.823 61.792C170.26 61.7067 173.609 62.6027 175.871 64.48C178.132 66.3573 179.263 68.64 179.263 71.328C179.263 73.376 178.559 75.3387 177.151 77.216C175.785 79.136 173.673 80.6933 170.815 81.888C167.999 83.0827 164.436 83.68 160.127 83.68C157.567 83.68 155.177 83.36 152.959 82.72C150.74 82.08 148.948 81.12 147.583 79.84C146.217 78.6027 145.535 77.0667 145.535 75.232C145.535 73.5253 146.324 71.776 147.903 69.984C149.481 68.192 151.892 66.656 155.135 65.376Z" fill="white"/>
<path d="M248.464 25.848V33.848H236.56L238.032 32.376V75H228.432V32.376L229.84 33.848H218.384V25.848H248.464ZM252.098 75V38.2H260.994L261.57 49.528H259.65C260.546 45.7307 261.868 42.7867 263.618 40.696C265.41 38.5627 267.927 37.496 271.17 37.496C271.468 37.496 271.746 37.496 272.002 37.496C272.3 37.496 272.599 37.5173 272.898 37.56L271.874 47.096C270.679 46.584 269.527 46.328 268.418 46.328C267.095 46.328 265.9 46.7333 264.833 47.544C263.81 48.312 262.999 49.464 262.402 51C261.847 52.4933 261.57 54.328 261.57 56.504V75H252.098ZM276.91 75V38.584H286.382V75H276.91ZM281.646 34.36C280.11 34.36 278.745 33.8267 277.55 32.76C276.398 31.6933 275.822 30.0933 275.822 27.96C275.822 25.8693 276.419 24.312 277.614 23.288C278.809 22.264 280.174 21.752 281.71 21.752C283.246 21.752 284.611 22.264 285.806 23.288C287.001 24.312 287.598 25.8693 287.598 27.96C287.598 30.0507 286.979 31.6507 285.742 32.76C284.547 33.8267 283.182 34.36 281.646 34.36ZM324.417 75.64C323.777 75.8107 323.116 75.9173 322.433 75.96C321.75 76.0453 321.11 76.088 320.513 76.088C318.55 76.088 316.865 75.6187 315.457 74.68C314.092 73.7413 312.79 72.2053 311.553 70.072L305.025 59.192L292.097 38.584H302.465L311.041 53.048L320.129 67.192C320.513 67.832 320.961 68.3013 321.473 68.6C321.985 68.856 322.582 68.984 323.265 68.984C323.35 68.984 323.457 68.984 323.585 68.984C323.756 68.9413 323.905 68.8987 324.033 68.856L324.417 75.64ZM290.753 75L304.577 54.072L306.241 52.216L314.689 38.584H324.033L310.785 58.104L309.505 60.28L300.353 75H290.753Z" fill="white"/>
</svg>
